PathFileType	4	(X/Y/Z)	C:/Users/opensim2020/Desktop/walking_exp_matlab/subject06_walking12_straigt_04.trc																																																																																																																																														
DataRate	CameraRate	NumFrames	NumMarkers	Units	OrigDataRate	OrigDataStartFrame	OrigNumFrames																																																																																																																																										
100	100	4	48	mm	100	2879	181																																																																																																																																										
Frame#	Time	LFHD			RFHD			LBHD			RBHD			C7			T10			CLAV			STRN			RBAK			LSHO			LUPA			LELB			LFRM			LWRA			LWRB			LFIN			RSHO			RUPA			RELB			RFRM			RWRA			RWRB			RFIN			LASI			RASI			LPSI			RPSI			LTHI			LKNE			LTIB			LANK			LHEE			LTOE			RTHI			RKNE			RTIB			RANK			RHEE			RTOE			*39			*40			*41			*42			*43			*44			*45			*46			*47		
		X1	Y1	Z1	X2	Y2	Z2	X3	Y3	Z3	X4	Y4	Z4	X5	Y5	Z5	X6	Y6	Z6	X7	Y7	Z7	X8	Y8	Z8	X9	Y9	Z9	X10	Y10	Z10	X11	Y11	Z11	X12	Y12	Z12	X13	Y13	Z13	X14	Y14	Z14	X15	Y15	Z15	X16	Y16	Z16	X17	Y17	Z17	X18	Y18	Z18	X19	Y19	Z19	X20	Y20	Z20	X21	Y21	Z21	X22	Y22	Z22	X23	Y23	Z23	X24	Y24	Z24	X25	Y25	Z25	X26	Y26	Z26	X27	Y27	Z27	X28	Y28	Z28	X29	Y29	Z29	X30	Y30	Z30	X31	Y31	Z31	X32	Y32	Z32	X33	Y33	Z33	X34	Y34	Z34	X35	Y35	Z35	X36	Y36	Z36	X37	Y37	Z37	X38	Y38	Z38	X39	Y39	Z39	X40	Y40	Z40	X41	Y41	Z41	X42	Y42	Z42	X43	Y43	Z43	X44	Y44	Z44	X45	Y45	Z45	X46	Y46	Z46	X47	Y47	Z47	X48	Y48	Z48
																																																																																																																																																	
114	1.13	-1522.87512	1668.63562	-67.28194	-1391.39197	1655.01721	-59.20266	-1531.61597	1614.35986	66.64533	-1402.64807	1606.85083	72.98652	-1474.90637	1455.90588	72.44698	-1468.71667	1126.82837	108.1193	-1469.04321	1378.77563	-37.1064	-1474.69519	1203.71948	-76.78619	-1397.61938	1287.0835	148.53633	-1632.53711	1410.3075	10.74247	-1709.39209	1210.57959	-8.149	-1725.71387	1098.87109	-19.39892	-1744.39771	959.09692	-75.79762	-1691.61169	858.18707	-150.54761	-1739.10291	841.862	-100.08205	-1734.19507	773.28333	-157.85452	-1309.65845	1410.82507	12.76754	-1226.45215	1211.66394	60.95108	-1219.3302	1088.86328	58.53695	-1205.02734	968.17456	52.75238	-1239.08215	824.51141	6.08876	-1198.4856	830.26837	60.14017	-1198.4801	750.88391	30.99182	-1574.82629	968.15216	-74.92472	-1353.96265	973.14197	-68.76718	-1550.25122	994.31879	84.45228	-1381.99207	992.3277	83.0153	-1622.75659	650.59827	-10.68007	-1593.20874	487.32764	-8.74695	-1575.60535	238.07028	58.23901	-1523.6781	71.86448	89.26344	-1478.60303	61.57057	131.28242	-1521.5719	39.42117	-53.15219	-1288.11328	652.8526	-99.63172	-1305.57861	537.76343	-151.64873	-1311.60962	309.43002	-28.28741	-1356.36975	148.09085	62.57381	-1406.42358	136.21918	103.14809	-1337.28479	60.62843	-60.52756	-1468.50952	1706.18311	36.47147	NaN	NaN	NaN	NaN	NaN	NaN	NaN	NaN	NaN	NaN	NaN	NaN	NaN	NaN	NaN	NaN	NaN	NaN	NaN	NaN	NaN	NaN	NaN	NaN
115	1.14	-1522.81775	1668.26855	-77.33223	-1391.29492	1654.51855	-68.91586	-1531.87842	1614.15698	56.64882	-1402.84412	1606.51123	63.27817	-1475.33508	1455.62402	62.80682	-1469.17249	1126.56299	98.7585	-1469.35669	1378.37024	-46.60499	-1475.31921	1203.22827	-86.21738	-1398.39148	1286.68604	139.12097	-1632.75208	1410.19373	1.071	-1710.43958	1211.1062	-20.27626	-1727.33191	1099.66101	-33.91166	-1745.69153	961.74738	-94.83688	-1692.51917	863.7851	-173.02658	-1739.92859	845.50751	-123.14277	-1734.95422	779.23126	-183.54796	-1309.9425	1410.23035	3.31487	-1227.02832	1211.37598	53.48851	-1219.7334	1088.66309	52.26148	-1205.09375	967.90631	48.63121	-1238.12549	822.95453	4.66233	-1197.95898	830.30255	58.67112	-1197.6615	749.99805	31.75535	-1575.4585	967.20905	-83.51592	-1354.55127	972.94214	-78.53961	-1550.22217	993.84845	75.78646	-1381.81458	992.20245	73.44881	-1622.5769	649.83093	-16.84283	-1593.10107	486.65125	-13.4429	-1575.30664	237.97601	55.90581	-1523.56433	72.12896	88.92005	-1478.54272	62.21091	131.31921	-1521.32178	39.50645	-53.47725	-1288.7998	654.11664	-111.88215	-1306.92432	539.16339	-163.76823	-1312.18042	304.69733	-49.30111	-1356.38452	138.30083	32.40769	-1406.32568	124.0099	72.23133	-1336.90845	57.96585	-95.20154	-1468.54297	1705.87659	26.52772	NaN	NaN	NaN	NaN	NaN	NaN	NaN	NaN	NaN	NaN	NaN	NaN	NaN	NaN	NaN	NaN	NaN	NaN	NaN	NaN	NaN	NaN	NaN	NaN
116	1.15	-1522.59302	1667.8324	-87.04818	-1391.19287	1653.89832	-78.56083	-1532.10156	1613.96545	46.80263	-1403.09888	1606.06396	53.66566	-1475.64722	1455.23938	53.2257	-1469.37537	1126.15588	89.4293	-1469.61743	1377.85168	-56.14364	-1475.89514	1202.66138	-95.56841	-1399.12585	1286.20862	129.69473	-1632.92981	1409.96704	-8.7789	-1711.3949	1211.57935	-32.30376	-1728.89429	1100.42603	-48.07557	-1746.82251	964.4187	-113.44509	-1693.34705	869.67072	-195.04523	-1740.48413	849.21552	-145.77734	-1735.51941	785.5929	-208.76807	-1310.11389	1409.55383	-6.11627	-1227.5376	1211.11926	46.22755	-1220.01868	1088.39929	45.95412	-1205.04443	967.70062	44.47449	-1237.48352	821.7876	3.23768	-1197.48816	830.30408	57.03528	-1196.84033	749.39087	32.15924	-1575.9657	966.04761	-91.34531	-1355.1925	972.61523	-88.35699	-1550.00159	993.21051	67.214	-1381.66736	991.95392	63.87274	-1622.66455	649.05255	-22.77167	-1592.88599	485.88684	-18.2974	-1575.07324	237.90784	53.49137	-1523.52173	72.40736	88.53083	-1478.50208	62.74721	131.12929	-1521.1925	39.32249	-53.36798	-1289.18909	655.06177	-123.30042	-1308.09119	540.04358	-175.09886	-1312.46252	299.78149	-70.20607	-1356.25867	128.71338	1.6522	-1406.13916	112.26762	40.77186	-1336.39905	55.8278	-130.42651	-1468.53223	1705.48608	16.6795	NaN	NaN	NaN	NaN	NaN	NaN	NaN	NaN	NaN	NaN	NaN	NaN	NaN	NaN	NaN	NaN	NaN	NaN	NaN	NaN	NaN	NaN	NaN	NaN
117	1.16	-1522.41541	1667.31116	-96.94669	-1391.04517	1653.29016	-88.22134	-1532.15137	1613.52979	36.94987	-1403.23511	1605.51465	44.0397	-1475.7959	1454.75073	43.63178	-1469.63367	1125.69556	80.04501	-1469.80029	1377.20496	-65.65539	-1476.38794	1201.95923	-104.97522	-1399.79028	1285.63574	120.14387	-1633.05457	1409.65259	-18.52741	-1712.27783	1211.9845	-44.28222	-1730.37207	1101.15015	-61.99278	-1747.97559	967.245	-131.67719	-1694.02637	875.80463	-216.47314	-1740.90454	853.27802	-168.00459	-1735.93127	792.33356	-233.48244	-1310.30273	1408.84668	-15.57299	-1228.10266	1210.91187	38.83529	-1220.18323	1088.20398	39.65119	-1204.95276	967.47314	40.20305	-1236.76196	820.69879	1.60874	-1196.8689	830.36981	55.32791	-1196.02087	748.96729	31.78759	-1576.64941	964.98303	-99.67612	-1355.7666	972.11951	-98.13015	-1549.66003	992.49396	58.57648	-1381.3208	991.54266	54.31287	-1622.2854	648.42279	-29.31504	-1592.64087	485.17932	-23.21886	-1574.86951	237.90285	51.03642	-1523.46887	72.73689	88.19926	-1478.45642	63.20861	130.66496	-1521.08911	39.44261	-53.56093	-1289.59363	655.67169	-134.70531	-1309.07178	540.3819	-185.60402	-1312.54089	294.70111	-91.4019	-1355.76453	119.54134	-29.75346	-1405.96887	100.86591	8.47057	-1336.43469	53.82437	-165.42924	-1468.50122	1704.9873	6.90846	NaN	NaN	NaN	NaN	NaN	NaN	NaN	NaN	NaN	NaN	NaN	NaN	NaN	NaN	NaN	NaN	NaN	NaN	NaN	NaN	NaN	NaN	NaN	NaN
